<svg xmlns="http://www.w3.org/2000/svg" width="100%" height="100%" viewBox="0 0 285 47" fill="none" preserveAspectRatio="xMidYMid meet" aria-hidden="true" role="img">
<path d="M20.8092 46.2974C20.8092 45.3213 20.831 44.3597 20.8745 43.427C20.918 42.4943 21.0051 41.5833 21.1429 40.694L21.0776 40.6289C20.2725 42.4943 18.9306 44.0198 17.0375 45.1911C15.1372 46.3697 12.9467 46.9553 10.4516 46.9553C7.41969 46.9553 5.08414 46.0588 3.4304 44.2512C1.77665 42.4581 0.957031 40.2023 0.957031 37.491C0.957031 35.5316 1.41399 33.8325 2.3279 32.3937C3.24181 30.9549 4.53289 29.7475 6.2084 28.7931C7.87665 27.8387 9.89306 27.1301 12.2576 26.6602C14.6222 26.1902 17.2479 25.9661 20.1419 25.9661V24.7659C20.1419 22.5896 19.6632 21.0785 18.7058 20.2325C17.7483 19.3866 16.2469 18.9672 14.1942 18.9672C12.6783 18.9672 10.9665 19.1914 9.04443 19.6324C7.12956 20.0735 5.50483 20.6302 4.16298 21.2954L2.75584 14.6942C4.45311 14.0724 6.41149 13.5374 8.63824 13.0963C10.865 12.6553 13.07 12.4312 15.2605 12.4312C17.8862 12.4312 20.0476 12.6842 21.7449 13.1976C23.4349 13.7109 24.7985 14.4484 25.8212 15.4317C26.8439 16.4078 27.5838 17.6224 28.0262 19.0612C28.4687 20.5073 28.6935 22.1847 28.6935 24.0935V37.7513C28.6935 39.0889 28.7153 40.4771 28.7588 41.9159C28.8023 43.3619 28.8676 44.8152 28.9546 46.2829H20.802L20.8092 46.2974ZM20.1419 31.5695C17.9587 31.5695 16.1526 31.7068 14.7237 31.9671C13.2948 32.2346 12.1778 32.5889 11.351 33.03C10.5241 33.4782 9.95834 34.006 9.64645 34.6278C9.33456 35.2496 9.18224 35.8931 9.18224 36.5655C9.18224 37.6717 9.55215 38.5972 10.2847 39.3275C11.0173 40.0649 11.9893 40.4264 13.1933 40.4264C14.2668 40.4264 15.2242 40.1951 16.0656 39.7324C16.9142 39.2696 17.6395 38.6695 18.2416 37.932C18.8436 37.2018 19.3151 36.3631 19.6487 35.4304C19.9824 34.4977 20.1492 33.5433 20.1492 32.5672V31.5695H20.1419Z" fill="currentColor"></path>
<path d="M57.1104 46.2962C57.1104 45.537 57.1322 44.5827 57.1757 43.4258C57.2192 42.269 57.328 41.2495 57.5093 40.3602H57.4441C56.4213 42.3196 54.9707 43.903 53.0993 45.1249C51.228 46.3468 48.907 46.9542 46.1435 46.9542C44.2721 46.9542 42.7054 46.6794 41.4288 46.1227C40.1595 45.566 39.1441 44.814 38.3897 43.8596C37.6354 42.9053 37.0841 41.7918 36.7505 40.5265C36.4168 39.2612 36.25 37.8947 36.25 36.4342V13.1747H44.7436V34.3664C44.7436 36.051 45.0337 37.3814 45.614 38.3575C46.1942 39.3335 47.2822 39.8252 48.8924 39.8252C49.9587 39.8252 50.9741 39.536 51.9316 38.9576C52.889 38.3792 53.7014 37.6128 54.3687 36.6584C55.036 35.704 55.5727 34.5833 55.9716 33.2963C56.3706 32.0021 56.5737 30.6284 56.5737 29.1607V13.1675H65.1325V46.289H57.1104V46.2962Z" fill="currentColor"></path>
<path d="M90.9572 46.023C89.8837 46.2906 88.7087 46.5147 87.4176 46.6882C86.1193 46.869 84.9007 46.9557 83.7402 46.9557C81.9124 46.9557 80.3747 46.7822 79.1271 46.4279C77.8796 46.0736 76.8859 45.4808 76.1533 44.6638C75.4207 43.8395 74.8985 42.7767 74.5793 41.4608C74.2674 40.1521 74.1079 38.5181 74.1079 36.5659V19.7702H68.3633V13.169H74.1079V2.97448L82.5942 0.711426V13.169H90.6816V19.7702H82.5942V34.2957C82.5942 36.4286 82.8843 37.8746 83.4646 38.6265C84.0448 39.3785 85.0676 39.7545 86.54 39.7545C88.0124 39.7545 89.2817 39.6026 90.3552 39.2845L90.9572 46.0158V46.023Z" fill="currentColor"></path>
<path d="M125.678 29.1035C125.678 31.7209 125.265 34.1213 124.445 36.2976C123.618 38.4739 122.451 40.3537 120.935 41.9299C119.419 43.5061 117.627 44.7424 115.553 45.6317C113.478 46.5211 111.193 46.9621 108.698 46.9621C106.334 46.9621 104.201 46.6512 102.279 46.0294C100.364 45.4076 98.7396 44.4171 97.3977 43.065C96.0631 41.7058 95.0259 39.9777 94.2861 37.8665C93.5535 35.7553 93.1836 33.2392 93.1836 30.3038C93.1836 27.7298 93.597 25.3511 94.4167 23.1748C95.2435 20.9985 96.3968 19.1187 97.891 17.5425C99.3851 15.9663 101.169 14.7299 103.237 13.8406C105.311 12.9513 107.618 12.5103 110.156 12.5103C114.878 12.5103 118.643 13.8551 121.457 16.5375C124.264 19.2271 125.671 23.4134 125.671 29.1035M116.844 29.5663C116.844 26.3705 116.263 23.9267 115.103 22.2349C113.942 20.5502 112.093 19.7043 109.554 19.7043C108.619 19.7043 107.69 19.8923 106.776 20.2682C105.862 20.6442 105.05 21.2371 104.339 22.0324C103.628 22.835 103.055 23.8472 102.635 25.0619C102.214 26.2838 102.004 27.737 102.004 29.4289C102.004 36.2759 104.477 39.6958 109.424 39.6958C111.563 39.6958 113.333 38.8498 114.74 37.1652C116.147 35.4733 116.844 32.9428 116.844 29.5663Z" fill="currentColor"></path>
<path d="M155.964 33.56C155.964 35.5122 155.587 37.3052 154.826 38.9248C154.071 40.5444 152.983 41.947 151.583 43.1255C150.176 44.3041 148.472 45.2151 146.47 45.8586C144.461 46.502 142.234 46.8274 139.782 46.8274C138.042 46.8274 136.352 46.7117 134.698 46.4948C133.051 46.2707 131.557 45.967 130.223 45.5621L130.955 41.3614C132.384 41.8964 133.871 42.323 135.43 42.6267C136.99 42.9376 138.549 43.0966 140.109 43.0966C141.668 43.0966 143.075 42.9303 144.454 42.5977C145.832 42.2652 147.036 41.7373 148.066 41.0288C149.088 40.3202 149.915 39.402 150.539 38.2669C151.163 37.1317 151.475 35.7435 151.475 34.1023C151.475 32.2369 150.945 30.7475 149.872 29.634C148.798 28.5206 147.478 27.5806 145.897 26.807C144.316 26.0261 142.597 25.3031 140.747 24.6379C138.898 23.9728 137.186 23.163 135.605 22.2014C134.023 21.247 132.696 20.0612 131.623 18.6369C130.556 17.2198 130.02 15.3327 130.02 12.9757C130.02 11.2404 130.346 9.6353 130.991 8.14588C131.637 6.65646 132.594 5.36949 133.864 4.27773C135.133 3.1932 136.693 2.33281 138.542 1.71101C140.392 1.08921 142.517 0.77832 144.925 0.77832C146.303 0.77832 147.703 0.857852 149.103 1.00969C150.503 1.16875 151.808 1.37842 153.012 1.64594L152.483 5.51409C151.279 5.15981 149.995 4.87061 148.639 4.64647C147.275 4.42233 145.955 4.31388 144.657 4.31388C141.182 4.31388 138.593 5.05859 136.903 6.54801C135.206 8.03743 134.357 10.0257 134.357 12.5129C134.357 14.3349 134.894 15.7882 135.967 16.8799C137.041 17.9717 138.375 18.8972 139.978 19.678C141.581 20.4517 143.308 21.1819 145.157 21.8471C147.007 22.5123 148.733 23.322 150.336 24.2764C151.939 25.2308 153.281 26.431 154.347 27.8771C155.42 29.3159 155.95 31.2174 155.95 33.5745" fill="currentColor"></path>
<path d="M188.282 25.9754V26.908C188.282 27.3129 188.239 27.9492 188.152 28.8385H165.623C165.536 31.1522 165.71 33.2489 166.153 35.136C166.602 37.0231 167.306 38.5631 168.256 39.7633C169.221 40.9635 170.432 41.8384 171.904 42.3951C173.377 42.9518 175.089 43.2266 177.047 43.2266C178.657 43.2266 180.26 43.0603 181.863 42.7277C183.466 42.3951 184.982 41.9179 186.411 41.2961L187.209 44.8245C185.649 45.4463 183.938 45.9307 182.066 46.2922C180.195 46.6465 178.208 46.82 176.119 46.82C171.259 46.82 167.553 45.4535 164.985 42.7205C162.424 39.9875 161.141 35.6855 161.141 29.829C161.141 27.3852 161.467 25.1077 162.113 22.9965C162.758 20.8853 163.708 19.0633 164.956 17.5305C166.203 15.9977 167.705 14.7975 169.467 13.9299C171.223 13.0622 173.239 12.6284 175.517 12.6284C177.794 12.6284 179.723 12.9827 181.334 13.6913C182.937 14.3998 184.264 15.3903 185.309 16.6556C186.353 17.9209 187.115 19.3453 187.579 20.9214C188.043 22.4976 188.282 24.175 188.282 25.9537M183.8 25.2162C183.8 22.4615 183.045 20.2346 181.53 18.521C180.014 16.8075 177.917 15.9543 175.248 15.9543C172.797 15.9543 170.737 16.7785 169.068 18.4198C167.4 20.061 166.319 22.4615 165.826 25.6138H183.807V25.2089L183.8 25.2162Z" fill="currentColor"></path>
<path d="M251.812 36.5682C251.812 37.9925 251.5 39.3229 250.877 40.5665C250.253 41.81 249.361 42.8946 248.2 43.8345C247.047 44.7672 245.618 45.5047 243.921 46.0325C242.231 46.5675 240.309 46.835 238.176 46.835C236.885 46.835 235.58 46.77 234.267 46.6326C232.954 46.5024 231.779 46.2783 230.756 45.9674L231.358 41.9691C232.424 42.374 233.628 42.6849 234.97 42.9018C236.305 43.1259 237.625 43.2344 238.916 43.2344C241.411 43.2344 243.464 42.6921 245.067 41.6004C246.67 40.5158 247.475 39.0337 247.475 37.1683C247.475 35.7439 247.061 34.6594 246.235 33.9002C245.408 33.1411 244.378 32.5409 243.13 32.0999C241.883 31.6589 240.526 31.2612 239.054 30.8997C237.581 30.5454 236.225 30.0465 234.978 29.3958C233.73 28.7523 232.693 27.8775 231.866 26.764C231.039 25.6506 230.633 24.0961 230.633 22.1006C230.633 19.3459 231.685 17.0828 233.81 15.3042C235.92 13.5255 239.054 12.6362 243.203 12.6362C244.269 12.6362 245.393 12.7013 246.576 12.8314C247.758 12.9688 248.86 13.1424 249.883 13.3665L249.346 16.9671C248.324 16.6562 247.228 16.4104 246.068 16.2369C244.907 16.0561 243.747 15.9693 242.593 15.9693C240.011 15.9693 238.082 16.4827 236.813 17.5022C235.536 18.5216 234.905 19.9026 234.905 21.6378C234.905 23.0622 235.318 24.1467 236.138 24.9059C236.965 25.6578 238.009 26.2724 239.279 26.7351C240.548 27.2051 241.904 27.61 243.355 27.9642C244.806 28.3185 246.162 28.8102 247.431 29.432C248.701 30.0538 249.752 30.9214 250.572 32.0348C251.399 33.1483 251.805 34.6594 251.805 36.5682" fill="currentColor"></path>
<path d="M284.048 25.9754V26.908C284.048 27.3129 284.004 27.9492 283.91 28.8385H261.382C261.287 31.1522 261.469 33.2489 261.918 35.136C262.361 37.0231 263.064 38.5631 264.022 39.7633C264.979 40.9635 266.19 41.8384 267.663 42.3951C269.128 42.9518 270.847 43.2266 272.805 43.2266C274.416 43.2266 276.019 43.0603 277.622 42.7277C279.225 42.3951 280.74 41.9179 282.169 41.2961L282.974 44.8245C281.415 45.4463 279.703 45.9307 277.825 46.2922C275.953 46.6465 273.973 46.82 271.877 46.82C267.017 46.82 263.311 45.4535 260.75 42.7205C258.183 39.9875 256.906 35.6855 256.906 29.829C256.906 27.3852 257.225 25.1077 257.878 22.9965C258.524 20.8853 259.474 19.0633 260.721 17.5305C261.969 15.9977 263.47 14.7975 265.233 13.9299C266.996 13.0622 269.012 12.6284 271.282 12.6284C273.553 12.6284 275.496 12.9827 277.099 13.6913C278.702 14.3998 280.03 15.3903 281.074 16.6556C282.119 17.9209 282.873 19.3453 283.344 20.9214C283.809 22.4976 284.048 24.175 284.048 25.9537M279.565 25.2162C279.565 22.4615 278.811 20.2346 277.295 18.521C275.779 16.8075 273.683 15.9543 271.014 15.9543C268.562 15.9543 266.502 16.7785 264.827 18.4198C263.159 20.061 262.071 22.4615 261.585 25.6138H279.565V25.2089V25.2162Z" fill="currentColor"></path>
<path d="M217.967 46.3006V24.8414C217.967 22.0867 217.488 19.9321 216.531 18.3776C215.573 16.8231 213.803 16.0422 211.214 16.0422C209.655 16.0422 208.218 16.3965 206.898 17.1051C205.586 17.8209 204.461 18.8186 203.526 20.1056C202.59 21.3926 201.85 22.9254 201.321 24.704C200.784 26.4826 200.516 28.4131 200.516 30.5026V46.3006H196.309V13.1791H200.588C200.588 14.3359 200.545 15.659 200.457 17.1412C200.37 18.6306 200.211 19.8887 199.986 20.9081L200.117 20.9732C201.052 18.4426 202.554 16.4182 204.628 14.9071C206.703 13.396 209.205 12.644 212.15 12.644C214.065 12.644 215.668 12.9188 216.959 13.4755C218.257 14.0322 219.28 14.7842 220.034 15.7386C220.796 16.6929 221.34 17.8209 221.673 19.1006C222.007 20.3948 222.174 21.7685 222.174 23.2363V46.2933H217.96L217.967 46.3006Z" fill="currentColor"></path>
</svg>
