<svg xmlns="http://www.w3.org/2000/svg" xmlns:xlink="http://www.w3.org/1999/xlink" viewBox="0 0 133 71" width="133" height="71" preserveAspectRatio="xMidYMid meet" style="width: 100%; height: 100%; transform: translate3d(0px, 0px, 0px); content-visibility: visible;"><defs><clipPath id="__lottie_element_2"><rect width="133" height="71" x="0" y="0"></rect></clipPath></defs><g clip-path="url(#__lottie_element_2)"><g transform="matrix(1,0,0,1,3.0000038146972656,1)" opacity="1" style="display: block;"><path fill="rgb(92,219,148)" fill-opacity="1" d=" M32.650001525878906,56.369998931884766 C30.100000381469727,58.9900016784668 30.15999984741211,63.18000030517578 32.7599983215332,65.73999786376953 C35.36000061035156,68.30000305175781 39.540000915527344,68.25 42.09000015258789,65.62999725341797 C47.54999923706055,60.0099983215332 55,56.790000915527344 62.97999954223633,56.790000915527344 C70.95999908447266,56.790000915527344 78.0999984741211,59.869998931884766 83.52999877929688,65.2699966430664 C86.12000274658203,67.83999633789062 90.30000305175781,67.81999969482422 92.8499984741211,65.22000122070312 C95.41000366210938,62.619998931884766 95.38999938964844,58.41999816894531 92.79000091552734,55.849998474121094 C84.91000366210938,48.02000045776367 74.30000305175781,43.529998779296875 62.97999954223633,43.529998779296875 C51.65999984741211,43.529998779296875 40.56999969482422,48.220001220703125 32.650001525878906,56.369998931884766 C32.650001525878906,56.369998931884766 32.650001525878906,56.369998931884766 32.650001525878906,56.369998931884766z M16.68000030517578,40.290000915527344 C14.119999885559082,42.88999938964844 14.15999984741211,47.09000015258789 16.75,49.65999984741211 C19.34000015258789,52.22999954223633 23.520000457763672,52.189998626708984 26.079999923706055,49.59000015258789 C35.7599983215332,39.720001220703125 48.90999984741211,34.08000183105469 62.970001220703125,34.08000183105469 C77.02999877929688,34.08000183105469 89.77999877929688,39.54999923706055 99.41999816894531,49.13999938964844 C102.01000213623047,51.709999084472656 106.18000030517578,51.689998626708984 108.75,49.09000015258789 C111.30999755859375,46.4900016784668 111.29000091552734,42.290000915527344 108.69999694824219,39.720001220703125 C96.61000061035156,27.700000762939453 80.31999969482422,20.829999923706055 62.970001220703125,20.829999923706055 C45.619998931884766,20.829999923706055 28.809999465942383,27.920000076293945 16.68000030517578,40.290000915527344 M1.899999976158142,25.700000762939453 C-0.6600000262260437,28.299999237060547 -0.6299999952316284,32.5 1.9700000286102295,35.06999969482422 C4.570000171661377,37.63999938964844 8.739999771118164,37.599998474121094 11.300000190734863,34.9900016784668 C24.850000381469727,21.170000076293945 43.27000045776367,13.25 62.97999954223633,13.25 C82.69000244140625,13.25 100.58000183105469,20.940000534057617 114.08000183105469,34.400001525878906 C116.66000366210938,36.970001220703125 120.83999633789062,36.970001220703125 123.41000366210938,34.369998931884766 C125.97000122070312,31.770000457763672 125.95999908447266,27.559999465942383 123.37999725341797,24.989999771118164 C107.41999816894531,9.079999923706055 85.9000015258789,0 62.97999954223633,0 C40.060001373291016,0 17.90999984741211,9.369999885559082 1.909999966621399,25.700000762939453"></path></g><g style="display: block;" transform="matrix(1,0,0,1,17.78000259399414,21.830001831054688)" opacity="1"><path fill="rgb(92,219,148)" fill-opacity="1" d=" M1.899999976158142,19.459999084472656 C-0.6600000262260437,22.059999465942383 -0.6299999952316284,26.260000228881836 1.9600000381469727,28.829999923706055 C4.550000190734863,31.399999618530273 8.729999542236328,31.360000610351562 11.289999961853027,28.760000228881836 C20.969999313354492,18.889999389648438 34.130001068115234,13.25 48.189998626708984,13.25 C62.25,13.25 75,18.719999313354492 84.63999938964844,28.309999465942383 C87.2300033569336,30.8799991607666 91.38999938964844,30.860000610351562 93.95999908447266,28.260000228881836 C96.5199966430664,25.65999984741211 96.5,21.459999084472656 93.91000366210938,18.889999389648438 C81.81999969482422,6.869999885559082 65.54000091552734,0 48.189998626708984,0 C30.84000015258789,0 14.029999732971191,7.090000152587891 1.899999976158142,19.459999084472656"></path></g><g style="display: block;" transform="matrix(1,0,0,1,33.77000427246094,44.53000259399414)" opacity="1"><path fill="rgb(92,219,148)" fill-opacity="1" d=" M1.8799999952316284,12.829999923706055 C-0.6700000166893005,15.449999809265137 -0.6100000143051147,19.639999389648438 1.9900000095367432,22.200000762939453 C4.590000152587891,24.760000228881836 8.760000228881836,24.719999313354492 11.3100004196167,22.100000381469727 C16.770000457763672,16.479999542236328 24.229999542236328,13.25 32.209999084472656,13.25 C40.189998626708984,13.25 47.31999969482422,16.329999923706055 52.75,21.729999542236328 C55.34000015258789,24.299999237060547 59.52000045776367,24.280000686645508 62.06999969482422,21.68000030517578 C64.62999725341797,19.079999923706055 64.62000274658203,14.880000114440918 62.02000045776367,12.3100004196167 C54.13999938964844,4.480000019073486 43.52000045776367,0 32.20000076293945,0 C20.8799991607666,0 9.800000190734863,4.679999828338623 1.8799999952316284,12.829999923706055 C1.8799999952316284,12.829999923706055 1.8799999952316284,12.829999923706055 1.8799999952316284,12.829999923706055z"></path></g></g></svg>
